<mxfile host="app.diagrams.net" modified="2023-01-26T19:51:43.856Z" agent="5.0 (Windows NT 10.0; Win64; x64) AppleWebKit/537.36 (KHTML, like Gecko) Chrome/109.0.0.0 Safari/537.36" etag="GY24hzzlXao2Y7rbbYNZ" version="20.8.10" type="github">
  <diagram name="Page-1" id="BpgqNkmuJZm_dqKt8SP2">
    <mxGraphModel dx="1050" dy="1685" grid="1" gridSize="10" guides="1" tooltips="1" connect="1" arrows="1" fold="0" page="1" pageScale="1" pageWidth="850" pageHeight="1100" math="0" shadow="0">
      <root>
        <mxCell id="0" />
        <mxCell id="1" parent="0" />
        <mxCell id="Jtu4Si_-9lb6fWam_Yyo-1" value="" style="ellipse;html=1;shape=startState;fillColor=#000000;strokeColor=#ff0000;" parent="1" vertex="1">
          <mxGeometry x="60" y="140" width="30" height="30" as="geometry" />
        </mxCell>
        <mxCell id="Jtu4Si_-9lb6fWam_Yyo-2" value="" style="edgeStyle=orthogonalEdgeStyle;html=1;verticalAlign=bottom;endArrow=open;endSize=8;strokeColor=#ff0000;rounded=0;" parent="1" source="Jtu4Si_-9lb6fWam_Yyo-1" edge="1">
          <mxGeometry relative="1" as="geometry">
            <mxPoint x="240" y="155" as="targetPoint" />
          </mxGeometry>
        </mxCell>
        <mxCell id="Jtu4Si_-9lb6fWam_Yyo-3" value="Logs in" style="edgeLabel;html=1;align=center;verticalAlign=middle;resizable=0;points=[];" parent="Jtu4Si_-9lb6fWam_Yyo-2" vertex="1" connectable="0">
          <mxGeometry x="-0.1024" y="-2" relative="1" as="geometry">
            <mxPoint y="-2" as="offset" />
          </mxGeometry>
        </mxCell>
        <mxCell id="Jtu4Si_-9lb6fWam_Yyo-17" value="Idle" style="swimlane;fontStyle=1;align=center;verticalAlign=middle;childLayout=stackLayout;horizontal=1;startSize=30;horizontalStack=0;resizeParent=0;resizeLast=1;container=0;fontColor=#000000;collapsible=0;rounded=1;arcSize=30;strokeColor=#ff0000;fillColor=#ffffc0;swimlaneFillColor=#ffffc0;dropTarget=0;" parent="1" vertex="1">
          <mxGeometry x="240" y="70" width="160" height="170" as="geometry" />
        </mxCell>
        <mxCell id="Jtu4Si_-9lb6fWam_Yyo-18" value="do: user settings&lt;br&gt;do: check stock&lt;br&gt;do: manage rooms&lt;br&gt;do: request to buy stock&lt;br&gt;do: add stock&lt;br&gt;do: remove stock" style="text;html=1;strokeColor=none;fillColor=none;align=center;verticalAlign=middle;spacingLeft=4;spacingRight=4;whiteSpace=wrap;overflow=hidden;rotatable=0;fontColor=#000000;" parent="Jtu4Si_-9lb6fWam_Yyo-17" vertex="1">
          <mxGeometry y="30" width="160" height="140" as="geometry" />
        </mxCell>
        <mxCell id="Jtu4Si_-9lb6fWam_Yyo-51" style="edgeStyle=orthogonalEdgeStyle;shape=connector;rounded=0;orthogonalLoop=1;jettySize=auto;html=1;exitX=1;exitY=0.5;exitDx=0;exitDy=0;labelBackgroundColor=default;strokeColor=#ff0000;strokeWidth=1;fontFamily=Helvetica;fontSize=11;fontColor=default;endArrow=classic;entryX=0.75;entryY=0;entryDx=0;entryDy=0;" parent="Jtu4Si_-9lb6fWam_Yyo-17" source="Jtu4Si_-9lb6fWam_Yyo-18" target="Jtu4Si_-9lb6fWam_Yyo-17" edge="1">
          <mxGeometry relative="1" as="geometry">
            <mxPoint x="400" y="99.81818181818176" as="targetPoint" />
            <Array as="points">
              <mxPoint x="290" y="100" />
              <mxPoint x="290" y="-80" />
              <mxPoint x="120" y="-80" />
            </Array>
          </mxGeometry>
        </mxCell>
        <mxCell id="Jtu4Si_-9lb6fWam_Yyo-52" value="Authentication failed" style="edgeLabel;html=1;align=center;verticalAlign=middle;resizable=0;points=[];fontSize=11;fontFamily=Helvetica;fontColor=default;" parent="Jtu4Si_-9lb6fWam_Yyo-51" vertex="1" connectable="0">
          <mxGeometry x="0.464" y="-1" relative="1" as="geometry">
            <mxPoint x="10" as="offset" />
          </mxGeometry>
        </mxCell>
        <mxCell id="Jtu4Si_-9lb6fWam_Yyo-24" value="User settingsÂ " style="swimlane;fontStyle=1;align=center;verticalAlign=middle;childLayout=stackLayout;horizontal=1;startSize=30;horizontalStack=0;resizeParent=0;resizeLast=1;container=0;fontColor=#000000;collapsible=0;rounded=1;arcSize=30;strokeColor=#ff0000;fillColor=#ffffc0;swimlaneFillColor=#ffffc0;dropTarget=0;fontFamily=Helvetica;fontSize=11;" parent="1" vertex="1">
          <mxGeometry x="240" y="350" width="160" height="110" as="geometry" />
        </mxCell>
        <mxCell id="Jtu4Si_-9lb6fWam_Yyo-25" value="do: view users&lt;br&gt;do: remove user&lt;br&gt;do: add user" style="text;html=1;strokeColor=none;fillColor=none;align=center;verticalAlign=middle;spacingLeft=4;spacingRight=4;whiteSpace=wrap;overflow=hidden;rotatable=0;fontColor=default;fontSize=11;fontFamily=Helvetica;" parent="Jtu4Si_-9lb6fWam_Yyo-24" vertex="1">
          <mxGeometry y="30" width="160" height="80" as="geometry" />
        </mxCell>
        <mxCell id="Jtu4Si_-9lb6fWam_Yyo-29" style="edgeStyle=orthogonalEdgeStyle;shape=connector;rounded=0;orthogonalLoop=1;jettySize=auto;html=1;exitX=0.25;exitY=0;exitDx=0;exitDy=0;entryX=0.25;entryY=1;entryDx=0;entryDy=0;labelBackgroundColor=default;strokeColor=#ff0000;strokeWidth=1;fontFamily=Helvetica;fontSize=11;fontColor=default;endArrow=classic;" parent="1" source="Jtu4Si_-9lb6fWam_Yyo-24" target="Jtu4Si_-9lb6fWam_Yyo-18" edge="1">
          <mxGeometry relative="1" as="geometry" />
        </mxCell>
        <mxCell id="Jtu4Si_-9lb6fWam_Yyo-30" value="Back/return" style="edgeLabel;html=1;align=center;verticalAlign=middle;resizable=0;points=[];fontSize=11;fontFamily=Helvetica;fontColor=default;rotation=-90;" parent="Jtu4Si_-9lb6fWam_Yyo-29" vertex="1" connectable="0">
          <mxGeometry x="0.2042" y="-4" relative="1" as="geometry">
            <mxPoint x="-4" y="6" as="offset" />
          </mxGeometry>
        </mxCell>
        <mxCell id="Jtu4Si_-9lb6fWam_Yyo-32" style="edgeStyle=orthogonalEdgeStyle;shape=connector;rounded=0;orthogonalLoop=1;jettySize=auto;html=1;exitX=0.75;exitY=1;exitDx=0;exitDy=0;entryX=0.75;entryY=0;entryDx=0;entryDy=0;labelBackgroundColor=default;strokeColor=#ff0000;strokeWidth=1;fontFamily=Helvetica;fontSize=11;fontColor=default;endArrow=classic;" parent="1" source="Jtu4Si_-9lb6fWam_Yyo-18" target="Jtu4Si_-9lb6fWam_Yyo-24" edge="1">
          <mxGeometry relative="1" as="geometry" />
        </mxCell>
        <mxCell id="Jtu4Si_-9lb6fWam_Yyo-33" value="User settings" style="edgeLabel;html=1;align=center;verticalAlign=middle;resizable=0;points=[];fontSize=11;fontFamily=Helvetica;fontColor=default;rotation=-90;" parent="Jtu4Si_-9lb6fWam_Yyo-32" vertex="1" connectable="0">
          <mxGeometry x="-0.1651" y="-1" relative="1" as="geometry">
            <mxPoint y="4" as="offset" />
          </mxGeometry>
        </mxCell>
        <mxCell id="Jtu4Si_-9lb6fWam_Yyo-34" style="edgeStyle=orthogonalEdgeStyle;shape=connector;rounded=0;orthogonalLoop=1;jettySize=auto;html=1;labelBackgroundColor=default;strokeColor=#ff0000;strokeWidth=1;fontFamily=Helvetica;fontSize=11;fontColor=default;endArrow=classic;" parent="1" source="Jtu4Si_-9lb6fWam_Yyo-25" edge="1">
          <mxGeometry relative="1" as="geometry">
            <mxPoint x="570" y="422" as="targetPoint" />
          </mxGeometry>
        </mxCell>
        <mxCell id="Jtu4Si_-9lb6fWam_Yyo-45" value="View users" style="edgeLabel;html=1;align=center;verticalAlign=middle;resizable=0;points=[];fontSize=11;fontFamily=Helvetica;fontColor=default;" parent="Jtu4Si_-9lb6fWam_Yyo-34" vertex="1" connectable="0">
          <mxGeometry x="0.0973" y="-1" relative="1" as="geometry">
            <mxPoint as="offset" />
          </mxGeometry>
        </mxCell>
        <mxCell id="Jtu4Si_-9lb6fWam_Yyo-67" style="edgeStyle=orthogonalEdgeStyle;shape=connector;rounded=0;orthogonalLoop=1;jettySize=auto;html=1;labelBackgroundColor=default;strokeColor=#ff0000;strokeWidth=1;fontFamily=Helvetica;fontSize=11;fontColor=default;endArrow=classic;" parent="1" source="Jtu4Si_-9lb6fWam_Yyo-35" edge="1">
          <mxGeometry relative="1" as="geometry">
            <mxPoint x="810" y="417.5" as="targetPoint" />
          </mxGeometry>
        </mxCell>
        <mxCell id="Jtu4Si_-9lb6fWam_Yyo-35" value="Viewing users" style="swimlane;fontStyle=1;align=center;verticalAlign=middle;childLayout=stackLayout;horizontal=1;startSize=30;horizontalStack=0;resizeParent=0;resizeLast=1;container=0;fontColor=#000000;collapsible=0;rounded=1;arcSize=30;strokeColor=#ff0000;fillColor=#ffffc0;swimlaneFillColor=#ffffc0;dropTarget=0;fontFamily=Helvetica;fontSize=11;" parent="1" vertex="1">
          <mxGeometry x="570" y="360" width="160" height="115" as="geometry" />
        </mxCell>
        <mxCell id="Jtu4Si_-9lb6fWam_Yyo-36" value="entry: look at the whole list&lt;br&gt;entry: print the whole list" style="text;html=1;strokeColor=none;fillColor=none;align=center;verticalAlign=middle;spacingLeft=4;spacingRight=4;whiteSpace=wrap;overflow=hidden;rotatable=0;fontColor=default;fontSize=11;fontFamily=Helvetica;" parent="Jtu4Si_-9lb6fWam_Yyo-35" vertex="1">
          <mxGeometry y="30" width="160" height="85" as="geometry" />
        </mxCell>
        <mxCell id="Jtu4Si_-9lb6fWam_Yyo-43" style="edgeStyle=orthogonalEdgeStyle;shape=connector;rounded=0;orthogonalLoop=1;jettySize=auto;html=1;exitX=0;exitY=0.117;exitDx=0;exitDy=0;entryX=1;entryY=0.25;entryDx=0;entryDy=0;labelBackgroundColor=default;strokeColor=#ff0000;strokeWidth=1;fontFamily=Helvetica;fontSize=11;fontColor=default;endArrow=classic;exitPerimeter=0;" parent="1" source="Jtu4Si_-9lb6fWam_Yyo-36" target="Jtu4Si_-9lb6fWam_Yyo-25" edge="1">
          <mxGeometry relative="1" as="geometry">
            <mxPoint x="510" y="390" as="sourcePoint" />
            <mxPoint x="510" y="280" as="targetPoint" />
          </mxGeometry>
        </mxCell>
        <mxCell id="Jtu4Si_-9lb6fWam_Yyo-44" value="Back/return" style="edgeLabel;html=1;align=center;verticalAlign=middle;resizable=0;points=[];fontSize=11;fontFamily=Helvetica;fontColor=default;rotation=0;" parent="Jtu4Si_-9lb6fWam_Yyo-43" vertex="1" connectable="0">
          <mxGeometry x="0.2042" y="-4" relative="1" as="geometry">
            <mxPoint x="-18" y="3" as="offset" />
          </mxGeometry>
        </mxCell>
        <mxCell id="Jtu4Si_-9lb6fWam_Yyo-56" value="User removal" style="swimlane;fontStyle=1;align=center;verticalAlign=middle;childLayout=stackLayout;horizontal=1;startSize=30;horizontalStack=0;resizeParent=0;resizeLast=1;container=0;fontColor=#000000;collapsible=0;rounded=1;arcSize=30;strokeColor=#ff0000;fillColor=#ffffc0;swimlaneFillColor=#ffffc0;dropTarget=0;fontFamily=Helvetica;fontSize=11;" parent="1" vertex="1">
          <mxGeometry x="240" y="580" width="160" height="115" as="geometry" />
        </mxCell>
        <mxCell id="Jtu4Si_-9lb6fWam_Yyo-57" value="entry: search user to remove" style="text;html=1;strokeColor=none;fillColor=none;align=center;verticalAlign=middle;spacingLeft=4;spacingRight=4;whiteSpace=wrap;overflow=hidden;rotatable=0;fontColor=default;fontSize=11;fontFamily=Helvetica;" parent="Jtu4Si_-9lb6fWam_Yyo-56" vertex="1">
          <mxGeometry y="30" width="160" height="85" as="geometry" />
        </mxCell>
        <mxCell id="Jtu4Si_-9lb6fWam_Yyo-58" style="edgeStyle=orthogonalEdgeStyle;shape=connector;rounded=0;orthogonalLoop=1;jettySize=auto;html=1;exitX=0.75;exitY=0;exitDx=0;exitDy=0;entryX=0.75;entryY=1;entryDx=0;entryDy=0;labelBackgroundColor=default;strokeColor=#ff0000;strokeWidth=1;fontFamily=Helvetica;fontSize=11;fontColor=default;endArrow=classic;" parent="1" source="Jtu4Si_-9lb6fWam_Yyo-56" target="Jtu4Si_-9lb6fWam_Yyo-25" edge="1">
          <mxGeometry relative="1" as="geometry">
            <mxPoint x="400" y="520.0550000000001" as="sourcePoint" />
            <mxPoint x="230.48" y="520" as="targetPoint" />
          </mxGeometry>
        </mxCell>
        <mxCell id="Jtu4Si_-9lb6fWam_Yyo-59" value="Back/return" style="edgeLabel;html=1;align=center;verticalAlign=middle;resizable=0;points=[];fontSize=11;fontFamily=Helvetica;fontColor=default;rotation=90;" parent="Jtu4Si_-9lb6fWam_Yyo-58" vertex="1" connectable="0">
          <mxGeometry x="0.2042" y="-4" relative="1" as="geometry">
            <mxPoint x="-4" y="3" as="offset" />
          </mxGeometry>
        </mxCell>
        <mxCell id="Jtu4Si_-9lb6fWam_Yyo-60" style="edgeStyle=orthogonalEdgeStyle;shape=connector;rounded=0;orthogonalLoop=1;jettySize=auto;html=1;exitX=0.25;exitY=1;exitDx=0;exitDy=0;entryX=0.25;entryY=0;entryDx=0;entryDy=0;labelBackgroundColor=default;strokeColor=#ff0000;strokeWidth=1;fontFamily=Helvetica;fontSize=11;fontColor=default;endArrow=classic;" parent="1" source="Jtu4Si_-9lb6fWam_Yyo-25" target="Jtu4Si_-9lb6fWam_Yyo-56" edge="1">
          <mxGeometry relative="1" as="geometry" />
        </mxCell>
        <mxCell id="Jtu4Si_-9lb6fWam_Yyo-61" value="Remove user" style="edgeLabel;html=1;align=center;verticalAlign=middle;resizable=0;points=[];fontSize=11;fontFamily=Helvetica;fontColor=default;rotation=90;" parent="Jtu4Si_-9lb6fWam_Yyo-60" vertex="1" connectable="0">
          <mxGeometry x="-0.2206" y="-1" relative="1" as="geometry">
            <mxPoint as="offset" />
          </mxGeometry>
        </mxCell>
        <mxCell id="Jtu4Si_-9lb6fWam_Yyo-64" style="edgeStyle=orthogonalEdgeStyle;shape=connector;rounded=0;orthogonalLoop=1;jettySize=auto;html=1;exitX=1;exitY=0.75;exitDx=0;exitDy=0;labelBackgroundColor=default;strokeColor=#ff0000;strokeWidth=1;fontFamily=Helvetica;fontSize=11;fontColor=default;endArrow=classic;" parent="1" source="Jtu4Si_-9lb6fWam_Yyo-18" edge="1">
          <mxGeometry relative="1" as="geometry">
            <mxPoint x="810" y="205" as="targetPoint" />
          </mxGeometry>
        </mxCell>
        <mxCell id="Jtu4Si_-9lb6fWam_Yyo-66" value="Logs out" style="edgeLabel;html=1;align=center;verticalAlign=middle;resizable=0;points=[];fontSize=11;fontFamily=Helvetica;fontColor=default;" parent="Jtu4Si_-9lb6fWam_Yyo-64" vertex="1" connectable="0">
          <mxGeometry x="-0.1404" y="2" relative="1" as="geometry">
            <mxPoint as="offset" />
          </mxGeometry>
        </mxCell>
        <mxCell id="Jtu4Si_-9lb6fWam_Yyo-65" value="" style="ellipse;html=1;shape=endState;fillColor=#000000;strokeColor=#ff0000;fontFamily=Helvetica;fontSize=11;fontColor=default;" parent="1" vertex="1">
          <mxGeometry x="810" y="190" width="30" height="30" as="geometry" />
        </mxCell>
        <mxCell id="Jtu4Si_-9lb6fWam_Yyo-70" style="edgeStyle=orthogonalEdgeStyle;shape=connector;rounded=0;orthogonalLoop=1;jettySize=auto;html=1;labelBackgroundColor=default;strokeColor=#ff0000;strokeWidth=1;fontFamily=Helvetica;fontSize=11;fontColor=default;endArrow=classic;entryX=1.008;entryY=0.903;entryDx=0;entryDy=0;entryPerimeter=0;" parent="1" source="Jtu4Si_-9lb6fWam_Yyo-68" target="Jtu4Si_-9lb6fWam_Yyo-18" edge="1">
          <mxGeometry relative="1" as="geometry">
            <Array as="points">
              <mxPoint x="870" y="226" />
              <mxPoint x="403" y="226" />
            </Array>
          </mxGeometry>
        </mxCell>
        <mxCell id="Jtu4Si_-9lb6fWam_Yyo-71" value="Back to main page" style="edgeLabel;html=1;align=center;verticalAlign=middle;resizable=0;points=[];fontSize=11;fontFamily=Helvetica;fontColor=default;" parent="Jtu4Si_-9lb6fWam_Yyo-70" vertex="1" connectable="0">
          <mxGeometry x="0.3362" y="1" relative="1" as="geometry">
            <mxPoint as="offset" />
          </mxGeometry>
        </mxCell>
        <mxCell id="Jtu4Si_-9lb6fWam_Yyo-68" value="Prints the whole list" style="rounded=1;whiteSpace=wrap;html=1;arcSize=40;fontColor=#000000;fillColor=#ffffc0;strokeColor=#ff0000;fontFamily=Helvetica;fontSize=11;" parent="1" vertex="1">
          <mxGeometry x="810" y="400" width="120" height="40" as="geometry" />
        </mxCell>
        <mxCell id="Jtu4Si_-9lb6fWam_Yyo-73" style="edgeStyle=orthogonalEdgeStyle;shape=connector;rounded=0;orthogonalLoop=1;jettySize=auto;html=1;exitX=0.999;exitY=0.289;exitDx=0;exitDy=0;labelBackgroundColor=default;strokeColor=#ff0000;strokeWidth=1;fontFamily=Helvetica;fontSize=11;fontColor=default;endArrow=classic;entryX=0;entryY=0.25;entryDx=0;entryDy=0;exitPerimeter=0;" parent="1" source="Jtu4Si_-9lb6fWam_Yyo-57" target="Jtu4Si_-9lb6fWam_Yyo-77" edge="1">
          <mxGeometry relative="1" as="geometry">
            <mxPoint x="610.0000000000002" y="631.060606060606" as="targetPoint" />
          </mxGeometry>
        </mxCell>
        <mxCell id="Jtu4Si_-9lb6fWam_Yyo-80" style="edgeStyle=orthogonalEdgeStyle;shape=connector;rounded=0;orthogonalLoop=1;jettySize=auto;html=1;labelBackgroundColor=default;strokeColor=#ff0000;strokeWidth=1;fontFamily=Helvetica;fontSize=11;fontColor=default;endArrow=classic;entryX=1;entryY=0.5;entryDx=0;entryDy=0;" parent="1" source="Jtu4Si_-9lb6fWam_Yyo-77" target="Jtu4Si_-9lb6fWam_Yyo-77" edge="1">
          <mxGeometry relative="1" as="geometry">
            <mxPoint x="740" y="540" as="targetPoint" />
            <Array as="points">
              <mxPoint x="670" y="540" />
              <mxPoint x="850" y="540" />
              <mxPoint x="850" y="650" />
            </Array>
          </mxGeometry>
        </mxCell>
        <mxCell id="Jtu4Si_-9lb6fWam_Yyo-84" value="&lt;br&gt;&lt;br&gt;" style="edgeLabel;html=1;align=center;verticalAlign=middle;resizable=0;points=[];fontSize=11;fontFamily=Helvetica;fontColor=default;" parent="Jtu4Si_-9lb6fWam_Yyo-80" vertex="1" connectable="0">
          <mxGeometry x="-0.3791" y="2" relative="1" as="geometry">
            <mxPoint as="offset" />
          </mxGeometry>
        </mxCell>
        <mxCell id="Jtu4Si_-9lb6fWam_Yyo-97" value="Problem removing user" style="edgeLabel;html=1;align=center;verticalAlign=middle;resizable=0;points=[];fontSize=11;fontFamily=Helvetica;fontColor=default;" parent="Jtu4Si_-9lb6fWam_Yyo-80" vertex="1" connectable="0">
          <mxGeometry x="-0.2511" y="2" relative="1" as="geometry">
            <mxPoint x="-13" as="offset" />
          </mxGeometry>
        </mxCell>
        <mxCell id="Jtu4Si_-9lb6fWam_Yyo-77" value="User removed&amp;nbsp;" style="rounded=1;whiteSpace=wrap;html=1;arcSize=40;fontColor=#000000;fillColor=#ffffc0;strokeColor=#ff0000;fontFamily=Helvetica;fontSize=11;" parent="1" vertex="1">
          <mxGeometry x="610" y="620" width="120" height="60" as="geometry" />
        </mxCell>
        <mxCell id="Jtu4Si_-9lb6fWam_Yyo-79" style="edgeStyle=orthogonalEdgeStyle;shape=connector;rounded=0;orthogonalLoop=1;jettySize=auto;html=1;exitX=0.002;exitY=0.541;exitDx=0;exitDy=0;entryX=1;entryY=0.5;entryDx=0;entryDy=0;labelBackgroundColor=default;strokeColor=#ff0000;strokeWidth=1;fontFamily=Helvetica;fontSize=11;fontColor=default;endArrow=classic;exitPerimeter=0;" parent="1" source="Jtu4Si_-9lb6fWam_Yyo-77" target="Jtu4Si_-9lb6fWam_Yyo-57" edge="1">
          <mxGeometry relative="1" as="geometry" />
        </mxCell>
        <mxCell id="Jtu4Si_-9lb6fWam_Yyo-83" value="User deleted successfully" style="edgeLabel;html=1;align=center;verticalAlign=middle;resizable=0;points=[];fontSize=11;fontFamily=Helvetica;fontColor=default;" parent="Jtu4Si_-9lb6fWam_Yyo-79" vertex="1" connectable="0">
          <mxGeometry x="-0.0633" y="-1" relative="1" as="geometry">
            <mxPoint as="offset" />
          </mxGeometry>
        </mxCell>
        <mxCell id="Jtu4Si_-9lb6fWam_Yyo-86" style="edgeStyle=orthogonalEdgeStyle;shape=connector;rounded=0;orthogonalLoop=1;jettySize=auto;html=1;exitX=0;exitY=0.25;exitDx=0;exitDy=0;labelBackgroundColor=default;strokeColor=#ff0000;strokeWidth=1;fontFamily=Helvetica;fontSize=11;fontColor=default;endArrow=classic;entryX=0;entryY=0.588;entryDx=0;entryDy=0;entryPerimeter=0;" parent="1" source="Jtu4Si_-9lb6fWam_Yyo-25" target="Jtu4Si_-9lb6fWam_Yyo-88" edge="1">
          <mxGeometry relative="1" as="geometry">
            <mxPoint x="190" y="890" as="targetPoint" />
            <Array as="points">
              <mxPoint x="120" y="400" />
              <mxPoint x="120" y="890" />
            </Array>
          </mxGeometry>
        </mxCell>
        <mxCell id="AiHAVAKrmskd6c4UxiJu-2" value="User adding" style="edgeLabel;html=1;align=center;verticalAlign=middle;resizable=0;points=[];fontSize=11;fontFamily=Helvetica;fontColor=default;rotation=-90;" parent="Jtu4Si_-9lb6fWam_Yyo-86" vertex="1" connectable="0">
          <mxGeometry x="-0.1189" y="2" relative="1" as="geometry">
            <mxPoint y="148" as="offset" />
          </mxGeometry>
        </mxCell>
        <mxCell id="Jtu4Si_-9lb6fWam_Yyo-87" value="Add user" style="swimlane;fontStyle=1;align=center;verticalAlign=middle;childLayout=stackLayout;horizontal=1;startSize=30;horizontalStack=0;resizeParent=0;resizeLast=1;container=0;fontColor=#000000;collapsible=0;rounded=1;arcSize=30;strokeColor=#ff0000;fillColor=#ffffc0;swimlaneFillColor=#ffffc0;dropTarget=0;fontFamily=Helvetica;fontSize=11;" parent="1" vertex="1">
          <mxGeometry x="240" y="810" width="160" height="115" as="geometry" />
        </mxCell>
        <mxCell id="Jtu4Si_-9lb6fWam_Yyo-88" value="entry: search user to add" style="text;html=1;strokeColor=none;fillColor=none;align=center;verticalAlign=middle;spacingLeft=4;spacingRight=4;whiteSpace=wrap;overflow=hidden;rotatable=0;fontColor=default;fontSize=11;fontFamily=Helvetica;" parent="Jtu4Si_-9lb6fWam_Yyo-87" vertex="1">
          <mxGeometry y="30" width="160" height="85" as="geometry" />
        </mxCell>
        <mxCell id="Jtu4Si_-9lb6fWam_Yyo-89" style="edgeStyle=orthogonalEdgeStyle;shape=connector;rounded=0;orthogonalLoop=1;jettySize=auto;html=1;exitX=1;exitY=0.236;exitDx=0;exitDy=0;labelBackgroundColor=default;strokeColor=#ff0000;strokeWidth=1;fontFamily=Helvetica;fontSize=11;fontColor=default;endArrow=classic;exitPerimeter=0;entryX=0.017;entryY=0.25;entryDx=0;entryDy=0;entryPerimeter=0;" parent="1" source="Jtu4Si_-9lb6fWam_Yyo-88" target="Jtu4Si_-9lb6fWam_Yyo-93" edge="1">
          <mxGeometry relative="1" as="geometry">
            <mxPoint x="600" y="860" as="targetPoint" />
            <Array as="points">
              <mxPoint x="480" y="860" />
            </Array>
          </mxGeometry>
        </mxCell>
        <mxCell id="Jtu4Si_-9lb6fWam_Yyo-90" style="edgeStyle=orthogonalEdgeStyle;shape=connector;rounded=0;orthogonalLoop=1;jettySize=auto;html=1;labelBackgroundColor=default;strokeColor=#ff0000;strokeWidth=1;fontFamily=Helvetica;fontSize=11;fontColor=default;endArrow=classic;exitX=0.023;exitY=0.747;exitDx=0;exitDy=0;exitPerimeter=0;" parent="1" source="Jtu4Si_-9lb6fWam_Yyo-93" edge="1">
          <mxGeometry relative="1" as="geometry">
            <mxPoint x="400" y="900.06" as="targetPoint" />
            <mxPoint x="600" y="900" as="sourcePoint" />
            <Array as="points">
              <mxPoint x="480" y="900" />
            </Array>
          </mxGeometry>
        </mxCell>
        <mxCell id="Jtu4Si_-9lb6fWam_Yyo-98" value="User added successfully" style="edgeLabel;html=1;align=center;verticalAlign=middle;resizable=0;points=[];fontSize=11;fontFamily=Helvetica;fontColor=default;" parent="Jtu4Si_-9lb6fWam_Yyo-90" vertex="1" connectable="0">
          <mxGeometry x="-0.0928" y="2" relative="1" as="geometry">
            <mxPoint x="-11" as="offset" />
          </mxGeometry>
        </mxCell>
        <mxCell id="Jtu4Si_-9lb6fWam_Yyo-93" value="User added" style="rounded=1;whiteSpace=wrap;html=1;arcSize=40;fontColor=#000000;fillColor=#ffffc0;strokeColor=#ff0000;fontFamily=Helvetica;fontSize=11;" parent="1" vertex="1">
          <mxGeometry x="600" y="840" width="120" height="80" as="geometry" />
        </mxCell>
        <mxCell id="Jtu4Si_-9lb6fWam_Yyo-95" style="edgeStyle=orthogonalEdgeStyle;shape=connector;rounded=0;orthogonalLoop=1;jettySize=auto;html=1;entryX=1;entryY=0.5;entryDx=0;entryDy=0;labelBackgroundColor=default;strokeColor=#ff0000;strokeWidth=1;fontFamily=Helvetica;fontSize=11;fontColor=default;endArrow=classic;" parent="1" source="Jtu4Si_-9lb6fWam_Yyo-93" target="Jtu4Si_-9lb6fWam_Yyo-93" edge="1">
          <mxGeometry relative="1" as="geometry">
            <Array as="points">
              <mxPoint x="660" y="800" />
              <mxPoint x="860" y="800" />
              <mxPoint x="860" y="880" />
            </Array>
          </mxGeometry>
        </mxCell>
        <mxCell id="Jtu4Si_-9lb6fWam_Yyo-96" value="Problem adding user" style="edgeLabel;html=1;align=center;verticalAlign=middle;resizable=0;points=[];fontSize=11;fontFamily=Helvetica;fontColor=default;" parent="Jtu4Si_-9lb6fWam_Yyo-95" vertex="1" connectable="0">
          <mxGeometry x="-0.4917" y="2" relative="1" as="geometry">
            <mxPoint x="33" as="offset" />
          </mxGeometry>
        </mxCell>
        <mxCell id="Jtu4Si_-9lb6fWam_Yyo-85" style="edgeStyle=orthogonalEdgeStyle;shape=connector;rounded=0;orthogonalLoop=1;jettySize=auto;html=1;labelBackgroundColor=default;strokeColor=#ff0000;strokeWidth=1;fontFamily=Helvetica;fontSize=11;fontColor=default;endArrow=classic;exitX=-0.001;exitY=0.236;exitDx=0;exitDy=0;entryX=0;entryY=0.75;entryDx=0;entryDy=0;exitPerimeter=0;" parent="1" source="Jtu4Si_-9lb6fWam_Yyo-88" target="Jtu4Si_-9lb6fWam_Yyo-25" edge="1">
          <mxGeometry relative="1" as="geometry">
            <Array as="points">
              <mxPoint x="230" y="860" />
              <mxPoint x="160" y="860" />
              <mxPoint x="160" y="440" />
            </Array>
            <mxPoint x="230" y="860" as="sourcePoint" />
          </mxGeometry>
        </mxCell>
        <mxCell id="AiHAVAKrmskd6c4UxiJu-1" value="Back/return" style="edgeLabel;html=1;align=center;verticalAlign=middle;resizable=0;points=[];fontSize=11;fontFamily=Helvetica;fontColor=default;rotation=-90;" parent="Jtu4Si_-9lb6fWam_Yyo-85" vertex="1" connectable="0">
          <mxGeometry x="0.1667" relative="1" as="geometry">
            <mxPoint as="offset" />
          </mxGeometry>
        </mxCell>
      </root>
    </mxGraphModel>
  </diagram>
</mxfile>
